<?xml version="1.0" encoding="UTF-8"?>
<svg version="1.1" xmlns="http://www.w3.org/2000/svg" width="216" height="171">
<path d="M0 0 C71.28 0 142.56 0 216 0 C216 56.43 216 112.86 216 171 C144.72 171 73.44 171 0 171 C0 114.57 0 58.14 0 0 Z " fill="#0D7CF1" transform="translate(0,0)"/>
<path d="M0 0 C71.28 0 142.56 0 216 0 C216 56.43 216 112.86 216 171 C144.72 171 73.44 171 0 171 C0 114.57 0 58.14 0 0 Z M30 11 C29.97088533 37.28027193 29.97088533 37.28027193 29.95117188 63.56054688 C29.94522859 74.27108232 29.93822612 84.98160992 29.92456055 95.69213867 C29.91461455 103.49110388 29.90814678 111.29006276 29.90591151 119.08903414 C29.90460425 123.22112186 29.90151749 127.35319144 29.89426994 131.48527336 C29.88751106 135.37001526 29.88538277 139.25473146 29.88689232 143.13947868 C29.88661593 144.56939839 29.88461002 145.99931891 29.88079453 147.42923355 C29.87585941 149.37318051 29.87760195 151.31714109 29.87974548 153.26109314 C29.87882369 154.35157424 29.8779019 155.44205534 29.87695217 156.56558132 C29.72463315 158.94813651 29.72463315 158.94813651 31 160 C33.17805719 160.09429342 35.3592128 160.11742538 37.53930664 160.11352539 C38.22220261 160.11367142 38.90509857 160.11381744 39.60868835 160.1139679 C41.87587614 160.11326876 44.14298274 160.1054764 46.41015625 160.09765625 C47.97814387 160.09579207 49.54613207 160.09436817 51.11412048 160.09336853 C55.24876503 160.08954334 59.38337466 160.07971306 63.51800537 160.06866455 C67.73400398 160.05845044 71.95000822 160.05387091 76.16601562 160.04882812 C84.44402826 160.03809078 92.72200577 160.02049399 101 160 C101 151.42 101 142.84 101 134 C109.82497987 141.72185739 109.82497987 141.72185739 112.64770508 145.7980957 C118.4215028 153.2753649 124.31043582 159.86927091 134.01511955 161.31889153 C143.39022375 162.2730219 152.82767127 161.79802916 162.2175293 161.30462646 C166.37295392 161.10757547 170.53066973 161.02293489 174.68945312 160.92773438 C182.79913703 160.72604939 190.89785368 160.40344855 199 160 C199.22713951 157.83122273 199.22713951 157.83122273 197.3125 156.1875 C196.549375 155.465625 195.78625 154.74375 195 154 C192.23924533 151.31189677 189.63819628 148.59372964 187.1875 145.625 C185.08579284 143.13913814 182.91485902 140.98902753 180.42651367 138.89306641 C175.37635689 134.52502426 170.69400015 129.81914355 165.98828125 125.0859375 C165.05702927 124.15327057 164.12577728 123.22060364 163.16630554 122.25967407 C160.71162325 119.80121051 158.25995694 117.33976148 155.80895996 114.87762451 C153.31912577 112.37753364 150.82644083 109.88028865 148.33398438 107.3828125 C138.94968766 97.97816311 138.94968766 97.97816311 135.06091309 94.05799866 C133.81993212 92.81877262 132.56822542 91.58997272 131.29650879 90.38230896 C128.00695179 87.25451278 128.00695179 87.25451278 127.9296875 84.42578125 C129.22353874 81.49336658 130.63406396 80.19291461 133.125 78.1875 C136.02550444 75.8339765 138.54036326 73.42567028 140.94384766 70.58081055 C145.86813101 64.91218482 151.20358652 59.65209127 156.515625 54.3515625 C157.61959154 53.24692094 158.72340972 52.14213109 159.8270874 51.03720093 C162.12496818 48.73785558 164.42462345 46.44030431 166.72558594 44.14404297 C169.67343222 41.20192702 172.61672039 38.25529819 175.55871964 35.30733681 C177.83026743 33.03217842 180.10418778 30.75940336 182.37883759 28.48734665 C183.46562826 27.40122212 184.55167916 26.31435684 185.63697052 25.22673416 C187.14912899 23.71203734 188.66445344 22.20058055 190.18066406 20.68994141 C191.04113342 19.83026764 191.90160278 18.97059387 192.78814697 18.08486938 C195 16 195 16 198 14 C198 13.34 198 12.68 198 12 C188.95062548 11.7205275 179.90276062 11.50804195 170.84999466 11.37825394 C166.64501579 11.31592139 162.44301227 11.23157183 158.23974609 11.09472656 C154.17402275 10.96320538 150.1111374 10.89236731 146.0434494 10.86147308 C144.50106894 10.83949518 142.95882406 10.79657236 141.4176712 10.73123932 C131.81057878 10.33713606 131.81057878 10.33713606 123.45129395 14.61291504 C120.37044633 17.53032911 117.71209551 20.74222983 115 24 C113.55098743 25.34571648 112.07899721 26.6683166 110.5625 27.9375 C107.50100076 30.50587185 104.8704736 33.1295264 102 36 C101.505 23.625 101.505 23.625 101 11 C77.57 11 54.14 11 30 11 Z " fill="#F1F7F8" transform="translate(0,0)"/>
<path d="M0 0 C0.85857101 0.00707474 1.71714203 0.01414948 2.60173035 0.0214386 C5.33304478 0.04933723 8.06227833 0.11206434 10.79296875 0.17578125 C12.64905885 0.20087011 14.50518121 0.22368226 16.36132812 0.24414062 C20.90183847 0.29914872 25.44080132 0.38538761 29.98046875 0.48828125 C29.98046875 1.14828125 29.98046875 1.80828125 29.98046875 2.48828125 C28.4765625 3.93359375 28.4765625 3.93359375 26.41796875 5.61328125 C23.50786711 8.07842886 20.93727848 10.57188355 18.48046875 13.48828125 C15.56728931 16.93112968 12.41147321 19.78234739 8.96875 22.68359375 C6.205626 25.19157664 3.87383845 27.99477649 1.5234375 30.88671875 C-0.01953125 32.48828125 -0.01953125 32.48828125 -3.01953125 33.48828125 C-3.30828125 34.06578125 -3.59703125 34.64328125 -3.89453125 35.23828125 C-5.41336193 38.27594262 -7.56796858 40.15074475 -10.01953125 42.48828125 C-11.68926547 44.15197324 -13.35522772 45.81917194 -15.01953125 47.48828125 C-16.2795324 48.74862513 -17.53972134 50.00878129 -18.80004883 51.26879883 C-19.50039749 51.96914749 -20.20074615 52.66949615 -20.9223175 53.3910675 C-30.62138875 63.09013875 -40.32046 72.78921 -50.01953125 82.48828125 C-53.34432575 80.91240121 -55.53584742 79.20656635 -58.12890625 76.57421875 C-59.26005859 75.43339844 -59.26005859 75.43339844 -60.4140625 74.26953125 C-61.19136719 73.47546875 -61.96867187 72.68140625 -62.76953125 71.86328125 C-63.56230469 71.06148438 -64.35507813 70.2596875 -65.171875 69.43359375 C-67.12567618 67.45625279 -69.07465228 65.47439216 -71.01953125 63.48828125 C-69.38013192 59.30045869 -66.30107056 56.49897815 -63.1640625 53.40234375 C-62.5842009 52.82294037 -62.00433929 52.24353699 -61.40690613 51.64657593 C-60.17947852 50.42216512 -58.94962564 49.20018141 -57.7175293 47.98046875 C-55.85088624 46.13195314 -53.99224134 44.27569111 -52.13476562 42.41796875 C-50.93666602 41.2247902 -49.73811235 40.03206738 -48.5390625 38.83984375 C-47.99087357 38.29276764 -47.44268463 37.74569153 -46.87788391 37.18203735 C-43.5480852 33.89205231 -40.11129708 30.79219347 -36.52070618 27.78843689 C-34.62278302 26.14466077 -33.00095943 24.35270373 -31.39453125 22.42578125 C-26.75194132 16.99230764 -21.67855333 12.24686391 -16.30078125 7.55078125 C-13.92834583 5.51656911 -13.92834583 5.51656911 -11.94067383 2.88989258 C-7.91814583 -0.4172205 -5.04786678 -0.15746643 0 0 Z " fill="#EDF5F8" transform="translate(141.01953125,22.51171875)"/>
<path d="M0 0 C15.51 0 31.02 0 47 0 C49.81613374 24.14166043 49.81613374 24.14166043 42.81347656 33.44677734 C37.80177589 39.35937991 32.03102835 44.56471873 26.25628662 49.7142334 C23.50921925 52.19519693 20.84635055 54.7636315 18.171875 57.32226562 C2.71363987 72 2.71363987 72 0 72 C0 48.24 0 24.48 0 0 Z " fill="#EEF6F8" transform="translate(42,23)"/>
<path d="M0 0 C5.67292259 2.56418216 10.34363012 7.54305782 14.84570312 11.75976562 C15.42762421 12.30406219 16.00954529 12.84835876 16.60910034 13.40914917 C24.30173461 20.82011363 28.40906634 26.45989271 28.8996582 37.38964844 C28.57485429 42.93200516 27.78773414 48.43869878 27.09570312 53.94726562 C11.58570312 53.94726562 -3.92429688 53.94726562 -19.90429688 53.94726562 C-22.17632605 19.86682799 -22.17632605 19.86682799 -16.03710938 11.51367188 C-5.31906397 -0.14729716 -5.31906397 -0.14729716 0 0 Z " fill="#EEF6F8" transform="translate(61.904296875,94.052734375)"/>
<path d="M0 0 C2.48155299 1.12071187 3.4603702 2.53429345 4.85693359 4.83862305 C4.85693359 5.49862305 4.85693359 6.15862305 4.85693359 6.83862305 C5.4261554 7.08318237 5.9953772 7.3277417 6.58184814 7.57971191 C9.26499956 9.06442502 11.08700015 10.81447658 13.25830078 12.98120117 C14.11889099 13.83548706 14.9794812 14.68977295 15.8661499 15.56994629 C16.78607727 16.49392212 17.70600464 17.41789795 18.65380859 18.36987305 C19.61186996 19.32658676 20.57022802 20.28300344 21.52886963 21.23913574 C23.53260623 23.23992868 25.53269248 25.24428254 27.53027344 27.2512207 C30.09487189 29.82724412 32.6683857 32.39414404 35.24467087 34.95847321 C37.22305805 36.92964765 39.19667459 38.90554302 41.16886139 40.88291931 C42.57770549 42.29375076 43.99058677 43.70054694 45.40350342 45.1072998 C46.25148499 45.96158569 47.09946655 46.81587158 47.97314453 47.69604492 C48.72497009 48.44946167 49.47679565 49.20287842 50.25140381 49.97912598 C51.85693359 51.83862305 51.85693359 51.83862305 51.85693359 53.83862305 C46.41276219 54.01216221 40.9702126 54.13891864 35.52392578 54.22314453 C33.67305447 54.25826512 31.82237624 54.30597494 29.97216797 54.36669922 C27.30566768 54.45199856 24.64174051 54.49139185 21.97412109 54.5222168 C21.15201141 54.55834579 20.32990173 54.59447479 19.48287964 54.63169861 C16.00694115 54.63405367 13.76691363 54.6082673 11.04766846 52.30838013 C9.44726562 50.42871094 9.44726562 50.42871094 8.09915161 48.55335999 C6.37564956 46.17426663 4.17455521 44.6214089 1.85693359 42.83862305 C0.17374853 41.18615304 -1.48836743 39.51927912 -3.14306641 37.83862305 C-5.86930201 35.08570498 -8.59962135 32.33686821 -11.33056641 29.58862305 C-12.054375 28.85643555 -12.77818359 28.12424805 -13.52392578 27.36987305 C-14.21679688 26.6737793 -14.90966797 25.97768555 -15.62353516 25.26049805 C-16.56555786 24.31062012 -16.56555786 24.31062012 -17.52661133 23.34155273 C-19.08696968 21.7493733 -19.08696968 21.7493733 -21.14306641 20.83862305 C-18.84216463 15.5965366 -14.74814434 12.03595239 -10.76806641 8.02612305 C-9.99978516 7.2249707 -9.23150391 6.42381836 -8.43994141 5.59838867 C-7.69486328 4.8462207 -6.94978516 4.09405273 -6.18212891 3.3190918 C-5.50359863 2.62710693 -4.82506836 1.93512207 -4.12597656 1.22216797 C-2.14306641 -0.16137695 -2.14306641 -0.16137695 0 0 Z " fill="#ECF5F8" transform="translate(119.14306640625,94.161376953125)"/>
<path d="M0 0 C0.33 0 0.66 0 1 0 C1 13.86 1 27.72 1 42 C23.11 42 45.22 42 68 42 C68 33.42 68 24.84 68 16 C68.99 16 69.98 16 71 16 C70.67 25.24 70.34 34.48 70 44 C46.9 44 23.8 44 0 44 C0 29.48 0 14.96 0 0 Z " fill="#3489E2" transform="translate(31,116)"/>
<path d="M0 0 C1.7074998 1.28062485 3.37373596 2.61767557 5 4 C5 4.66 5 5.32 5 6 C-4.22267087 6.06941953 -13.44525222 6.12277008 -22.66812706 6.15543652 C-26.95039452 6.17111243 -31.23248364 6.19238549 -35.51464844 6.22631836 C-39.6448912 6.25884364 -43.77496211 6.2768385 -47.90532303 6.28463173 C-49.48345268 6.29018758 -51.06157261 6.30103646 -52.63962936 6.31719017 C-54.84508561 6.33887438 -57.04982592 6.34197082 -59.25537109 6.34057617 C-61.14067032 6.35056892 -61.14067032 6.35056892 -63.0640564 6.36076355 C-64.03291779 6.24171158 -65.00177917 6.12265961 -66 6 C-66.66 5.01 -67.32 4.02 -68 3 C-45.23 3.33 -22.46 3.66 1 4 C0.505 2.02 0.505 2.02 0 0 Z " fill="#348BE4" transform="translate(194,154)"/>
<path d="M0 0 C0 3.7185142 -0.85912168 4.31804606 -3.3125 7 C-3.92738281 7.680625 -4.54226562 8.36125 -5.17578125 9.0625 C-6.75544728 10.74026092 -8.35810926 12.38336911 -10 14 C-10.99 13.67 -11.98 13.34 -13 13 C-8.71 8.71 -4.42 4.42 0 0 Z " fill="#B2D3EF" transform="translate(99,55)"/>
<path d="M0 0 C0.66 0.33 1.32 0.66 2 1 C0.59106853 2.63171123 -0.82745958 4.25513945 -2.25 5.875 C-3.03890625 6.77992187 -3.8278125 7.68484375 -4.640625 8.6171875 C-6.74691403 10.74439993 -8.25651526 11.90512306 -11 13 C-9.63696103 9.84456479 -8.1817387 8.06811867 -5.5 5.9375 C-3.06335088 3.99127814 -1.77737879 2.66606818 0 0 Z " fill="#B3D4F0" transform="translate(113,41)"/>
<path d="M0 0 C0.33 0.66 0.66 1.32 1 2 C-0.07192184 3.3218362 -1.15802695 4.63217927 -2.25 5.9375 C-2.85328125 6.66839844 -3.4565625 7.39929688 -4.078125 8.15234375 C-6.10741134 10.10326334 -7.254407 10.61731779 -10 11 C-6.79239749 7.19364503 -3.59253891 3.45436433 0 0 Z " fill="#C9E3F6" transform="translate(53,101)"/>
<path d="M0 0 C0.33 0.66 0.66 1.32 1 2 C-4 8.57142857 -4 8.57142857 -9 10 C-8.06409496 8.8944811 -7.12620142 7.79064547 -6.1875 6.6875 C-5.66542969 6.07261719 -5.14335937 5.45773438 -4.60546875 4.82421875 C-3.12827531 3.14575321 -1.59960869 1.56117966 0 0 Z " fill="#B4D4F1" transform="translate(195,15)"/>
<path d="M0 0 C0.33 0.66 0.66 1.32 1 2 C-1.41556126 5.19199167 -3.68003538 7.74716687 -7 10 C-7.66 9.67 -8.32 9.34 -9 9 C-6.03 6.03 -3.06 3.06 0 0 Z " fill="#AECFF0" transform="translate(160,50)"/>
<path d="M0 0 C0.33 0.99 0.66 1.98 1 3 C-0.81725675 5.82684384 -2.03937946 7.65310925 -5.25 8.8125 C-5.8275 8.874375 -6.405 8.93625 -7 9 C-5.44499019 5.18315774 -2.96404505 2.80804268 0 0 Z " fill="#3088E5" transform="translate(113,25)"/>
<path d="M0 0 C0.33 0.66 0.66 1.32 1 2 C-2.44615385 6.8 -2.44615385 6.8 -5.25 7.8125 C-6.11625 7.9053125 -6.11625 7.9053125 -7 8 C-3.375 2.25 -3.375 2.25 0 0 Z " fill="#2D84E1" transform="translate(137,58)"/>
<path d="M0 0 C0 3.97054597 -1.3139381 5.16471244 -4 8 C-6.140625 8.6484375 -6.140625 8.6484375 -8 9 C-7.04270084 7.87411986 -6.08412105 6.7493285 -5.125 5.625 C-4.59132812 4.99851562 -4.05765625 4.37203125 -3.5078125 3.7265625 C-2.38567993 2.44163349 -1.20628025 1.20628025 0 0 Z " fill="#B3D3F1" transform="translate(175,35)"/>
</svg>
